<svg width="48" height="48" viewBox="0 0 48 48" fill="none" xmlns="http://www.w3.org/2000/svg">
<rect width="48" height="48" fill="#C4C4C4"/>
<path d="M6.08203 27.7158V17.1133C6.08203 15.9746 6.55469 14.8252 7.5 13.665C8.81055 12.0752 10.4756 11.2803 12.4951 11.2803V14.0518C11.1201 14.0732 10.0781 14.7393 9.36914 16.0498C9.06836 16.6299 8.91797 17.1562 8.91797 17.6289V27.7158C8.91797 29.3057 9.73438 30.4229 11.3672 31.0674C11.8398 31.2607 12.2158 31.3574 12.4951 31.3574V34.1611C11.1846 34.1611 9.89551 33.6992 8.62793 32.7754C6.95215 31.5078 6.10352 29.8213 6.08203 27.7158ZM14.1064 34.1611V31.3574C14.6221 31.3574 15.2451 31.1318 15.9756 30.6807C17.1143 29.9717 17.6836 28.9834 17.6836 27.7158V17.6289C17.6836 16.748 17.3184 15.9209 16.5879 15.1475C15.9004 14.4385 15.0732 14.0732 14.1064 14.0518V11.2803C16.3193 11.2588 18.0811 12.1826 19.3916 14.0518C20.1436 15.1475 20.5195 16.168 20.5195 17.1133V27.7158C20.498 30.0791 19.2842 31.9268 16.8779 33.2588L18.7148 35.9336L16.459 37.4482L14.1064 34.1611ZM23.1621 34V11.4414H25.9658V34H23.1621ZM28.125 28.9082L30.7031 28.0059C30.832 28.9082 31.1758 29.6494 31.7344 30.2295C32.3145 30.8096 32.8623 31.1641 33.3779 31.293L34.1191 31.4863V34.0967C32.2285 34.0967 30.6387 33.291 29.3496 31.6797C28.5547 30.6699 28.1465 29.7461 28.125 28.9082ZM28.3828 17.5322C28.3828 15.2119 29.3818 13.4717 31.3799 12.3115C32.3682 11.7314 33.2812 11.4414 34.1191 11.4414V14.084C33.3672 14.1699 32.6582 14.5674 31.9922 15.2764C31.3906 15.9424 31.0898 16.7051 31.0898 17.5645C31.0898 18.875 32.0352 19.8633 33.9258 20.5293C34.3984 20.6797 35.1182 20.8838 36.085 21.1416C37.0947 21.4209 37.8037 21.6357 38.2119 21.7861C40.1455 22.5811 41.3809 23.666 41.918 25.041C42.1973 25.7285 42.3369 26.502 42.3369 27.3613C42.3369 29.2305 41.6172 30.8525 40.1777 32.2275C38.8672 33.4736 37.3848 34.0967 35.7305 34.0967V31.4863C36.6113 31.4434 37.46 31.0244 38.2764 30.2295C39.0928 29.3916 39.5117 28.4355 39.5332 27.3613C39.5332 25.8574 38.4912 24.7617 36.4072 24.0742C35.9561 23.9238 35.2686 23.7412 34.3447 23.5264C33.3564 23.29 32.6904 23.0967 32.3467 22.9463C30.5205 22.1943 29.3496 21.2061 28.834 19.9814C28.5332 19.2725 28.3828 18.4561 28.3828 17.5322ZM35.7305 14.084V11.4414C37.5996 11.4414 39.1572 12.2686 40.4033 13.9229C41.0264 14.7607 41.3701 15.5127 41.4346 16.1787L38.8242 17.0488C38.5234 15.5449 37.6641 14.5889 36.2461 14.1807C35.9023 14.1162 35.7305 14.084 35.7305 14.084Z" fill="black"/>
<path d="M2.03381 45.1964V42.1741C2.04193 41.8004 2.22067 41.4308 2.57001 41.0652C2.99248 40.6346 3.50431 40.4152 4.10551 40.4071V41.3698C3.71555 41.3698 3.41088 41.5404 3.19153 41.8817C3.10216 42.0279 3.05747 42.162 3.05747 42.2838V43.1125H5.78725V42.2838C5.78725 41.9182 5.60039 41.6501 5.22667 41.4795C5.05606 41.3983 4.88139 41.3576 4.70265 41.3576V40.4071C5.26323 40.4071 5.76288 40.6061 6.20159 41.0042C6.56719 41.3536 6.75405 41.7395 6.76217 42.162V44.0996H3.05747V45.1964C3.05747 45.4239 3.18746 45.6351 3.44744 45.8301C3.65868 45.9763 3.88209 46.0495 4.1177 46.0495V47C3.37839 47 2.7975 46.6994 2.37503 46.0982C2.14755 45.7813 2.03381 45.4807 2.03381 45.1964ZM4.70265 47V46.0373C5.19011 46.0373 5.55571 45.826 5.79944 45.4036C5.84819 45.3142 5.88475 45.2289 5.90912 45.1476L6.77436 45.4645C6.62812 46.0251 6.29502 46.4475 5.77507 46.7319C5.44197 46.9106 5.0845 47 4.70265 47ZM7.72491 47V42.1863C7.72491 41.7964 7.89958 41.4145 8.24893 41.0408C8.67952 40.6021 9.21166 40.3827 9.84536 40.3827V41.3942C9.43102 41.3942 9.11417 41.5567 8.89481 41.8817C8.80545 42.0198 8.76076 42.162 8.76076 42.3082V47H7.72491ZM10.3816 41.3942V40.3827C11.1371 40.3827 11.7261 40.6874 12.1486 41.2967C12.3761 41.6136 12.4898 41.9101 12.4898 42.1863V47H11.454V42.3082C11.454 42.0563 11.3281 41.8329 11.0762 41.6379C10.8731 41.4754 10.6415 41.3942 10.3816 41.3942ZM13.4526 47.0366V38.3963H14.4153V40.9433C14.7159 40.6752 15.0856 40.5371 15.5243 40.529V41.4795C15.1587 41.4795 14.85 41.642 14.5981 41.967C14.4844 42.1213 14.4275 42.2635 14.4275 42.3935V47.0366H13.4526ZM16.097 41.4795V40.529C16.8526 40.529 17.4213 40.8011 17.8032 41.3455C18.0063 41.6379 18.1078 41.9507 18.1078 42.2838V47.0366H17.1329V42.3935C17.1329 42.0848 16.9948 41.837 16.7186 41.6501C16.5398 41.5364 16.3327 41.4795 16.097 41.4795ZM18.9365 45.4645C18.9365 45.9113 19.1559 46.2891 19.5946 46.5978C19.9683 46.8578 20.407 46.9878 20.9107 46.9878V46.0373C20.2039 46.021 19.8464 45.7529 19.8383 45.233V44.9039C19.8464 44.7252 19.8952 44.5952 19.9845 44.514C20.082 44.4246 20.5167 44.2865 21.2885 44.0996C21.8897 43.9534 22.2959 43.8234 22.5072 43.7096V45.1111C22.5072 45.6392 22.2512 45.9438 21.7394 46.0251C21.6582 46.0332 21.581 46.0373 21.5079 46.0373V46.9878C22.0766 46.9797 22.5234 46.8375 22.8484 46.5613C23.1002 46.8456 23.4293 46.9878 23.8355 46.9878V46.0251C23.6242 46.0088 23.5146 45.8748 23.5064 45.6229V42.2838C23.5064 41.7639 23.3074 41.3089 22.9093 40.9189C22.5356 40.5615 22.0684 40.3827 21.5079 40.3827V41.3211C21.8897 41.3211 22.1741 41.4754 22.3609 41.7842C22.4584 41.9467 22.5072 42.1254 22.5072 42.3204V42.5519C22.5072 42.755 22.0238 42.9906 21.057 43.2587C20.1877 43.5025 19.688 43.6568 19.558 43.7218C19.1437 43.9656 18.9365 44.3515 18.9365 44.8795V45.4645ZM19.0218 42.0401L19.9236 42.3813C19.9236 41.9263 20.1105 41.6095 20.4842 41.4308C20.6223 41.3658 20.7685 41.3333 20.9229 41.3333V40.3827C20.3623 40.3827 19.883 40.5858 19.4849 40.992C19.1762 41.3008 19.0218 41.6501 19.0218 42.0401ZM24.7007 47V42.1863C24.7007 41.7964 24.8754 41.4145 25.2247 41.0408C25.6553 40.6021 26.1875 40.3827 26.8212 40.3827V41.3942C26.4068 41.3942 26.09 41.5567 25.8706 41.8817C25.7813 42.0198 25.7366 42.162 25.7366 42.3082V47H24.7007ZM27.3574 41.3942V40.3827C28.1129 40.3827 28.702 40.6874 29.1244 41.2967C29.3519 41.6136 29.4657 41.9101 29.4657 42.1863V47H28.4298V42.3082C28.4298 42.0563 28.3039 41.8329 28.052 41.6379C27.8489 41.4754 27.6174 41.3942 27.3574 41.3942ZM30.404 45.1964C30.404 45.627 30.5706 46.021 30.9037 46.3785C31.2936 46.7928 31.8095 47 32.4513 47V46.0251C32.0126 46.0251 31.6998 45.8626 31.513 45.5376C31.448 45.4239 31.4155 45.3101 31.4155 45.1964V42.2351C31.4155 41.9751 31.5495 41.7517 31.8176 41.5648C32.0045 41.4429 32.2157 41.382 32.4513 41.382V40.4071C31.6714 40.4071 31.0865 40.7118 30.6965 41.3211C30.5015 41.6217 30.404 41.9182 30.404 42.2107V45.1964ZM32.9997 41.3942C33.3978 41.3942 33.6741 41.5648 33.8284 41.906C33.8853 42.036 33.9178 42.1701 33.9259 42.3082V42.6007L34.8765 42.2351C34.8765 41.642 34.6327 41.1586 34.1453 40.7849C33.8041 40.533 33.4222 40.4071 32.9997 40.4071V41.3942ZM32.9997 47.0122C33.5766 47.0203 34.0803 46.801 34.5109 46.3541C34.8521 45.9885 35.0227 45.5904 35.0227 45.1598L34.0722 44.8064C34.0722 44.8146 34.0722 44.8227 34.0722 44.8308C34.0722 44.8389 34.0722 44.8552 34.0722 44.8795C34.0722 44.9039 34.0722 44.9242 34.0722 44.9405C34.0722 44.9567 34.0722 44.977 34.0722 45.0014C34.0722 45.0177 34.0722 45.0339 34.0722 45.0502L34.06 45.0745C34.0193 45.5295 33.7919 45.826 33.3775 45.9641C33.2557 46.0048 33.1297 46.0251 32.9997 46.0251V47.0122ZM35.8026 45.1964V42.1741C35.8108 41.8004 35.9895 41.4308 36.3388 41.0652C36.7613 40.6346 37.2731 40.4152 37.8743 40.4071V41.3698C37.4844 41.3698 37.1797 41.5404 36.9604 41.8817C36.871 42.0279 36.8263 42.162 36.8263 42.2838V43.1125H39.5561V42.2838C39.5561 41.9182 39.3692 41.6501 38.9955 41.4795C38.8249 41.3983 38.6502 41.3576 38.4715 41.3576V40.4071C39.0321 40.4071 39.5317 40.6061 39.9704 41.0042C40.336 41.3536 40.5229 41.7395 40.531 42.162V44.0996H36.8263V45.1964C36.8263 45.4239 36.9563 45.6351 37.2163 45.8301C37.4275 45.9763 37.6509 46.0495 37.8865 46.0495V47C37.1472 47 36.5663 46.6994 36.1439 46.0982C35.9164 45.7813 35.8026 45.4807 35.8026 45.1964ZM38.4715 47V46.0373C38.9589 46.0373 39.3245 45.826 39.5683 45.4036C39.617 45.3142 39.6536 45.2289 39.678 45.1476L40.5432 45.4645C40.397 46.0251 40.0639 46.4475 39.5439 46.7319C39.2108 46.9106 38.8533 47 38.4715 47ZM41.3963 45.1964V42.1863C41.4044 41.7476 41.6034 41.3414 41.9934 40.9677C42.3752 40.6021 42.8221 40.4193 43.3339 40.4193H44.2966V41.4064H43.3461C43.013 41.4064 42.7408 41.5567 42.5296 41.8573C42.4402 41.9954 42.3955 42.1254 42.3955 42.2473V45.172C42.3955 45.432 42.5418 45.6554 42.8343 45.8423C43.0049 45.956 43.1795 46.0129 43.3583 46.0129H44.2966V47H43.3705C42.6474 47 42.0868 46.6872 41.6887 46.0616C41.4937 45.7529 41.3963 45.4645 41.3963 45.1964ZM44.8816 47L44.8938 38.3841H45.9418V47H44.8816Z" fill="black"/>
</svg>
